<?xml version="1.0" encoding="UTF-8" standalone="no"?>
<svg
   xmlns:dc="http://purl.org/dc/elements/1.1/"
   xmlns:cc="http://creativecommons.org/ns#"
   xmlns:rdf="http://www.w3.org/1999/02/22-rdf-syntax-ns#"
   xmlns:svg="http://www.w3.org/2000/svg"
   xmlns="http://www.w3.org/2000/svg"
   xmlns:sodipodi="http://sodipodi.sourceforge.net/DTD/sodipodi-0.dtd"
   xmlns:inkscape="http://www.inkscape.org/namespaces/inkscape"
   viewBox="0 0 24 13.593941"
   enable-background="new 0 0 24 24"
   width="96"
   height="54.375763"
   id="svg2"
   version="1.1"
   inkscape:version="0.91 r13725"
   sodipodi:docname="cat_7.svg">
  <metadata
     id="metadata10">
    <rdf:RDF>
      <cc:Work
         rdf:about="">
        <dc:format>image/svg+xml</dc:format>
        <dc:type
           rdf:resource="http://purl.org/dc/dcmitype/StillImage" />
        <dc:title></dc:title>
      </cc:Work>
    </rdf:RDF>
  </metadata>
  <defs
     id="defs8" />
  <sodipodi:namedview
     pagecolor="#ffffff"
     bordercolor="#666666"
     borderopacity="1"
     objecttolerance="10"
     gridtolerance="10"
     guidetolerance="10"
     inkscape:pageopacity="0"
     inkscape:pageshadow="2"
     inkscape:window-width="1680"
     inkscape:window-height="1028"
     id="namedview6"
     showgrid="false"
     fit-margin-top="0"
     fit-margin-left="0"
     fit-margin-right="0"
     fit-margin-bottom="0"
     inkscape:zoom="2.4583333"
     inkscape:cx="-12"
     inkscape:cy="48"
     inkscape:window-x="-8"
     inkscape:window-y="-8"
     inkscape:window-maximized="1"
     inkscape:current-layer="svg2" />
  <path
     d="M 12.8125,1.9073906e-4 C 11.9895,-0.01680926 11.99925,1.1079407 12.78125,1.2189407 c 0.583541,0.08272 1.916818,0.298387 2.21875,0.34375 -3.17e-4,0.0099 0,0.02131 0,0.03125 -4.031,0 -6,3 -6,3 0,0 0.0395,-0.5615 -0.9375,-0.5625 -2.9,0 -4.28175,-1.116 -4.34375,0.625 -2.768,0 -3.515,1.65475 -3,2.21875 0.1223007,0 0.2264511,-0.0024 0.34375,0 C 0.40346218,7.5883007 0,8.5464567 0,9.5939407 c 0,2.2090003 1.791,4.0000003 4,4.0000003 1.9538363,0 3.5564871,-1.39778 3.90625,-3.25 l 0.15625,0 c 0.4432492,0.15743 0.9514865,0.25 1.5625,0.25 l 3,0 c 0.914,0 2.1915,-0.33175 2.5625,-1.9687503 L 16,4.2814407 l 1.375,2.3125 c -0.839992,0.733285 -1.375,1.79749 -1.375,3 0,2.2090003 1.791,4.0000003 4,4.0000003 2.209,0 4,-1.791 4,-4.0000003 0,-2.209 -1.791,-4 -4,-4 -0.461239,0 -0.900207,0.106333 -1.3125,0.25 l -1.625,-2.78125 c 0.131993,0.01333 0.268001,0.03125 0.40625,0.03125 1.266,0 1.28125,10e-4 1.28125,-1.5 0,-1.49899996 -0.02625,-1.49999996 -1.28125,-1.49999996 -0.906501,0 -1.698278,0.305149 -2.125,0.75 -0.30829,-0.114084 -2.252516,-0.838194 -2.53125,-0.84375000094 z M 20,7.0939407 c 1.378,0 2.5,1.122 2.5,2.5 0,1.3780003 -1.122,2.5000003 -2.5,2.5000003 -1.378,0 -2.5,-1.122 -2.5,-2.5000003 0,-0.64766 0.250461,-1.242852 0.65625,-1.6875 l 1.1875,2.0625 a 0.75583666,0.75583666 0 1 0 1.3125,-0.75 l -1.1875,-2.0625 c 0.171917,-0.037536 0.348279,-0.0625 0.53125,-0.0625 z m -16.53125,0.0625 c 0.010006,0.0022 0.021308,-0.0022 0.03125,0 0.4794933,0.108226 0.8757927,0.260125 1.21875,0.40625 l -1.15625,1.375 a 0.75405803,0.75405803 0 0 0 0.1875,1.3750003 0.7564824,0.7564824 0 0 0 0.28125,0.03125 l 2.34375,0 c -0.3216307,1.009377 -1.2607355,1.75 -2.375,1.75 -1.378,0 -2.5,-1.122 -2.5,-2.5000003 0,-1.195029 0.8459183,-2.192345 1.96875,-2.4375 z M 6,8.3439407 c 0.1574092,0.151352 0.2627853,0.318437 0.34375,0.4375 0.025411,0.03737 0.011942,0.02997 0.03125,0.0625 l -0.78125,0 0.40625,-0.5 z"
     id="path4"
     inkscape:connector-curvature="0"
     style="fill:#999999;fill-opacity:1" />
</svg>
