<?xml version="1.0" encoding="UTF-8" standalone="no"?>
<svg
   xmlns:dc="http://purl.org/dc/elements/1.1/"
   xmlns:cc="http://creativecommons.org/ns#"
   xmlns:rdf="http://www.w3.org/1999/02/22-rdf-syntax-ns#"
   xmlns:svg="http://www.w3.org/2000/svg"
   xmlns="http://www.w3.org/2000/svg"
   xmlns:sodipodi="http://sodipodi.sourceforge.net/DTD/sodipodi-0.dtd"
   xmlns:inkscape="http://www.inkscape.org/namespaces/inkscape"
   width="96"
   height="96"
   viewBox="0 0 24 24"
   id="svg2"
   version="1.1"
   inkscape:version="0.91 r13725"
   sodipodi:docname="cat_8.svg">
  <metadata
     id="metadata10">
    <rdf:RDF>
      <cc:Work
         rdf:about="">
        <dc:format>image/svg+xml</dc:format>
        <dc:type
           rdf:resource="http://purl.org/dc/dcmitype/StillImage" />
        <dc:title></dc:title>
      </cc:Work>
    </rdf:RDF>
  </metadata>
  <defs
     id="defs8" />
  <sodipodi:namedview
     pagecolor="#ffffff"
     bordercolor="#666666"
     borderopacity="1"
     objecttolerance="10"
     gridtolerance="10"
     guidetolerance="10"
     inkscape:pageopacity="0"
     inkscape:pageshadow="2"
     inkscape:window-width="1680"
     inkscape:window-height="1028"
     id="namedview6"
     showgrid="false"
     inkscape:zoom="2.4583333"
     inkscape:cx="-17.084746"
     inkscape:cy="48"
     inkscape:window-x="-8"
     inkscape:window-y="-8"
     inkscape:window-maximized="1"
     inkscape:current-layer="svg2" />
  <path
     d="M20.4,20.3c0,1.6-1,2.4-3,2.4c-1.7,0-3.2-0.6-5.2-0.6c-1.9,0-3,0.9-5.1,0.9c-1.9,0-2.7-1.4-2.7-2.4c0-2,1.5-2.3,3.2-4 C9.2,14.9,10.2,13,12,13c2.1,0,2.7,2.2,4.2,4C17.5,18.5,20.4,18.4,20.4,20.3z M15.9,9.9c2.2,0,3.4-2.6,3.4-5.2 c0-2.5-1.6-3.7-2.7-3.7c-2.3,0-3.4,2.3-3.4,3.8C13.2,6.4,13.8,9.9,15.9,9.9z M8,9.9c2,0,2.5-2.6,2.5-5.2c0-1.8-1.2-3.4-2.4-3.4 c-2.1,0-3.1,2.2-3.1,4C4.9,6.9,6.2,9.9,8,9.9z M5.7,12.4c0-1.7-1.4-3.3-2.7-3.3c-1.3,0-3,2.1-3,4.3C0,14.8,1.2,17,2.9,17 C4.5,17,5.7,14.8,5.7,12.4z M22.5,9.1c-1.3-0.3-2.7,0.9-3.9,3c-1.4,2.5-0.6,4.4,1.1,4.8c1.6,0.4,3.2-1.2,4.1-3.4 C24.4,11.7,23.8,9.4,22.5,9.1z"
     id="path4"
     style="fill:#999999;fill-opacity:1" />
</svg>
