<?xml version="1.0" encoding="UTF-8" standalone="no"?>
<svg
   xmlns:dc="http://purl.org/dc/elements/1.1/"
   xmlns:cc="http://creativecommons.org/ns#"
   xmlns:rdf="http://www.w3.org/1999/02/22-rdf-syntax-ns#"
   xmlns:svg="http://www.w3.org/2000/svg"
   xmlns="http://www.w3.org/2000/svg"
   xmlns:sodipodi="http://sodipodi.sourceforge.net/DTD/sodipodi-0.dtd"
   xmlns:inkscape="http://www.inkscape.org/namespaces/inkscape"
   width="96"
   height="96"
   viewBox="0 0 24 24"
   id="svg2"
   version="1.1"
   inkscape:version="0.91 r13725"
   sodipodi:docname="cat_4_hover.svg">
  <metadata
     id="metadata10">
    <rdf:RDF>
      <cc:Work
         rdf:about="">
        <dc:format>image/svg+xml</dc:format>
        <dc:type
           rdf:resource="http://purl.org/dc/dcmitype/StillImage" />
        <dc:title></dc:title>
      </cc:Work>
    </rdf:RDF>
  </metadata>
  <defs
     id="defs8" />
  <sodipodi:namedview
     pagecolor="#ffffff"
     bordercolor="#666666"
     borderopacity="1"
     objecttolerance="10"
     gridtolerance="10"
     guidetolerance="10"
     inkscape:pageopacity="0"
     inkscape:pageshadow="2"
     inkscape:window-width="1680"
     inkscape:window-height="1028"
     id="namedview6"
     showgrid="false"
     inkscape:zoom="2.4583333"
     inkscape:cx="-12"
     inkscape:cy="48"
     inkscape:window-x="-8"
     inkscape:window-y="-8"
     inkscape:window-maximized="1"
     inkscape:current-layer="svg2" />
  <path
     d="M 11 0 C 8 9 2 11 2 11 L 11 14 L 11 0 z M 11 14 L 2 14 L 2 15 C 2 16.644595 3.5576759 18.062346 5.40625 18.96875 C 4.6426163 18.890045 3.7056186 18.642564 3 18.09375 C 2.1 18.79375 0.8 19 0 19 L 0 21 C 1.7 21 2.4 20.59375 3 20.09375 C 3.9 20.79375 5.2 21 6 21 C 6.8 21 8.1 20.79375 9 20.09375 C 9.9 20.79375 11.2 21 12 21 C 12.8 21 14.1 20.79375 15 20.09375 C 15.9 20.79375 17.2 21 18 21 C 18.8 21 20.1 20.79375 21 20.09375 C 21.9 20.79375 23.2 21 24 21 L 24 19 C 23.2 19 21.9 18.79375 21 18.09375 C 20.1 18.79375 18.8 19 18 19 C 17.8 19 17.560938 18.998438 17.3125 18.96875 C 19.343206 18.122486 21.527864 16.600773 23 14 L 18 14 L 11 14 z M 18 14 C 18 14 18 7.9 13 3 C 13.9 9.6 12 12 12 12 L 18 14 z M 3 21.09375 C 2.1 21.79375 0.8 22 0 22 L 0 24 C 1.7 24 2.4 23.59375 3 23.09375 C 3.9 23.79375 5.2 24 6 24 C 6.8 24 8.1 23.79375 9 23.09375 C 9.9 23.79375 11.2 24 12 24 C 12.8 24 14.1 23.79375 15 23.09375 C 15.9 23.79375 17.2 24 18 24 C 18.8 24 20.1 23.79375 21 23.09375 C 21.9 23.79375 23.2 24 24 24 L 24 22 C 23.2 22 21.9 21.79375 21 21.09375 C 20.1 21.79375 18.8 22 18 22 C 17.2 22 15.9 21.79375 15 21.09375 C 14.1 21.79375 12.8 22 12 22 C 11.2 22 9.9 21.79375 9 21.09375 C 8.1 21.79375 6.8 22 6 22 C 5.2 22 3.9 21.79375 3 21.09375 z"
     id="path4"
     style="fill:#71a1ef;fill-opacity:1" />
</svg>
