<?xml version="1.0" encoding="UTF-8" standalone="no"?>
<svg
   xmlns:dc="http://purl.org/dc/elements/1.1/"
   xmlns:cc="http://creativecommons.org/ns#"
   xmlns:rdf="http://www.w3.org/1999/02/22-rdf-syntax-ns#"
   xmlns:svg="http://www.w3.org/2000/svg"
   xmlns="http://www.w3.org/2000/svg"
   xmlns:sodipodi="http://sodipodi.sourceforge.net/DTD/sodipodi-0.dtd"
   xmlns:inkscape="http://www.inkscape.org/namespaces/inkscape"
   width="96"
   height="96"
   viewBox="0 0 24 24"
   id="svg2"
   version="1.1"
   inkscape:version="0.91 r13725"
   sodipodi:docname="cat_10.svg">
  <metadata
     id="metadata10">
    <rdf:RDF>
      <cc:Work
         rdf:about="">
        <dc:format>image/svg+xml</dc:format>
        <dc:type
           rdf:resource="http://purl.org/dc/dcmitype/StillImage" />
        <dc:title></dc:title>
      </cc:Work>
    </rdf:RDF>
  </metadata>
  <defs
     id="defs8" />
  <sodipodi:namedview
     pagecolor="#ffffff"
     bordercolor="#666666"
     borderopacity="1"
     objecttolerance="10"
     gridtolerance="10"
     guidetolerance="10"
     inkscape:pageopacity="0"
     inkscape:pageshadow="2"
     inkscape:window-width="1680"
     inkscape:window-height="1028"
     id="namedview6"
     showgrid="false"
     inkscape:zoom="2.4583333"
     inkscape:cx="-12"
     inkscape:cy="48"
     inkscape:window-x="-8"
     inkscape:window-y="-8"
     inkscape:window-maximized="1"
     inkscape:current-layer="svg2" />
  <path
     d="M12,0C5.4,0,0,5.4,0,12s5.4,12,12,12s12-5.4,12-12S18.6,0,12,0z M12,3c3.5,0,6.6,2,8.1,5c0.3,0.6-0.3,1.2-0.9,0.9 c-1.6-0.8-4.3-1.8-7.2-1.8s-5.6,1-7.2,1.8C4.3,9.2,3.7,8.6,3.9,8C5.4,5,8.5,3,12,3z M10.1,20.3c0,0.3-0.3,0.5-0.5,0.4 c-3-0.8-5.4-3.2-6.2-6.2c-0.1-0.3,0.1-0.5,0.4-0.5h0.1C7.3,13.9,10.1,16.7,10.1,20.3L10.1,20.3z M12,14.5c-1.4,0-2.5-1.1-2.5-2.5 s1.1-2.5,2.5-2.5s2.5,1.1,2.5,2.5S13.4,14.5,12,14.5z M14.4,20.7c-0.3,0.1-0.5-0.1-0.5-0.4v-0.1c0-3.5,2.8-6.3,6.3-6.3h0.1 c0.3,0,0.5,0.3,0.4,0.5C19.8,17.4,17.4,19.8,14.4,20.7z"
     id="path4"
     style="fill:#999999;fill-opacity:1" />
</svg>
