<?xml version="1.0" encoding="UTF-8" standalone="no"?>
<svg
   xmlns:dc="http://purl.org/dc/elements/1.1/"
   xmlns:cc="http://creativecommons.org/ns#"
   xmlns:rdf="http://www.w3.org/1999/02/22-rdf-syntax-ns#"
   xmlns:svg="http://www.w3.org/2000/svg"
   xmlns="http://www.w3.org/2000/svg"
   xmlns:sodipodi="http://sodipodi.sourceforge.net/DTD/sodipodi-0.dtd"
   xmlns:inkscape="http://www.inkscape.org/namespaces/inkscape"
   viewBox="0 0 24 17"
   enable-background="new 0 0 24 24"
   width="96"
   height="68"
   id="svg2"
   version="1.1"
   inkscape:version="0.91 r13725"
   sodipodi:docname="cat_3.svg">
  <metadata
     id="metadata10">
    <rdf:RDF>
      <cc:Work
         rdf:about="">
        <dc:format>image/svg+xml</dc:format>
        <dc:type
           rdf:resource="http://purl.org/dc/dcmitype/StillImage" />
        <dc:title></dc:title>
      </cc:Work>
    </rdf:RDF>
  </metadata>
  <defs
     id="defs8" />
  <sodipodi:namedview
     pagecolor="#ffffff"
     bordercolor="#666666"
     borderopacity="1"
     objecttolerance="10"
     gridtolerance="10"
     guidetolerance="10"
     inkscape:pageopacity="0"
     inkscape:pageshadow="2"
     inkscape:window-width="1680"
     inkscape:window-height="1028"
     id="namedview6"
     showgrid="false"
     fit-margin-top="0"
     fit-margin-left="0"
     fit-margin-right="0"
     fit-margin-bottom="0"
     inkscape:zoom="2.4583333"
     inkscape:cx="-12"
     inkscape:cy="48"
     inkscape:window-x="-8"
     inkscape:window-y="-8"
     inkscape:window-maximized="1"
     inkscape:current-layer="svg2" />
  <path
     d="M 0.875,0 C 0.394,0 0,0.394 0,0.875 l 0,12.25 C 0,13.606 0.394,14 0.875,14 L 3,14 c 0,1.657 1.343,3 3,3 1.657,0 3,-1.343 3,-3 l 3.125,0 C 12.606,14 13,13.606 13,13.125 L 13,0.875 C 13,0.394 12.606,0 12.125,0 L 0.875,0 Z M 14.65625,2 C 14.29525,2 14,2.29425 14,2.65625 l 0,10.6875 c 0,0.27075 0.170844,0.494141 0.40625,0.59375 0.07847,0.0332 0.1595,0.0625 0.25,0.0625 L 16,14 c 0,1.657 1.343,3 3,3 1.657,0 3,-1.343 3,-3 l 1.34375,0 c 0.0905,0 0.171531,-0.02928 0.25,-0.0625 0.156937,-0.06644 0.277313,-0.186812 0.34375,-0.34375 C 23.97072,13.51528 24,13.43425 24,13.34375 L 24,8.1875 C 24,8.0585 23.947,7.95175 23.875,7.84375 L 20.1875,2.28125 C 20.0655,2.10025 19.87525,2 19.65625,2 l -5,0 z M 17,4 19.53125,4 22.1875,8 17,8 17,4 Z M 6,12.5 c 0.827,0 1.5,0.673 1.5,1.5 0,0.827 -0.673,1.5 -1.5,1.5 -0.827,0 -1.5,-0.673 -1.5,-1.5 0,-0.827 0.673,-1.5 1.5,-1.5 z m 13,0 c 0.827,0 1.5,0.673 1.5,1.5 0,0.827 -0.673,1.5 -1.5,1.5 -0.827,0 -1.5,-0.673 -1.5,-1.5 0,-0.827 0.673,-1.5 1.5,-1.5 z"
     id="path4"
     inkscape:connector-curvature="0"
     style="fill:#999999;fill-opacity:1" />
</svg>
