<?xml version="1.0" encoding="UTF-8" standalone="no"?>
<svg
   xmlns:dc="http://purl.org/dc/elements/1.1/"
   xmlns:cc="http://creativecommons.org/ns#"
   xmlns:rdf="http://www.w3.org/1999/02/22-rdf-syntax-ns#"
   xmlns:svg="http://www.w3.org/2000/svg"
   xmlns="http://www.w3.org/2000/svg"
   xmlns:sodipodi="http://sodipodi.sourceforge.net/DTD/sodipodi-0.dtd"
   xmlns:inkscape="http://www.inkscape.org/namespaces/inkscape"
   width="100"
   height="100"
   viewBox="0 0 50 50"
   id="svg2"
   version="1.1"
   inkscape:version="0.91 r13725"
   sodipodi:docname="cat_5_hover.svg">
  <metadata
     id="metadata10">
    <rdf:RDF>
      <cc:Work
         rdf:about="">
        <dc:format>image/svg+xml</dc:format>
        <dc:type
           rdf:resource="http://purl.org/dc/dcmitype/StillImage" />
        <dc:title></dc:title>
      </cc:Work>
    </rdf:RDF>
  </metadata>
  <defs
     id="defs8" />
  <sodipodi:namedview
     pagecolor="#ffffff"
     bordercolor="#666666"
     borderopacity="1"
     objecttolerance="10"
     gridtolerance="10"
     guidetolerance="10"
     inkscape:pageopacity="0"
     inkscape:pageshadow="2"
     inkscape:window-width="1680"
     inkscape:window-height="1028"
     id="namedview6"
     showgrid="false"
     inkscape:zoom="2.36"
     inkscape:cx="-12.5"
     inkscape:cy="50"
     inkscape:window-x="-8"
     inkscape:window-y="-8"
     inkscape:window-maximized="1"
     inkscape:current-layer="svg2" />
  <path
     d="M25,0C11.215,0,0,11.215,0,25s11.215,25,25,25s25-11.215,25-25S38.785,0,25,0z M26.797,36.935 c0,0.215-0.144,0.359-0.358,0.359h-2.726c-0.217,0-0.359-0.144-0.359-0.359v-3.084c0-0.215,0.143-0.359,0.359-0.359h2.726 c0.215,0,0.358,0.144,0.358,0.359V36.935z M29.953,23.271L27.55,26.57c-0.717,0.968-0.933,1.47-0.933,2.69v1.147 c0,0.215-0.143,0.359-0.358,0.359h-2.367c-0.216,0-0.358-0.144-0.358-0.359v-1.47c0-1.435,0.322-2.188,1.075-3.228l2.404-3.3 c1.254-1.721,1.684-2.546,1.684-3.766c0-2.044-1.434-3.335-3.479-3.335c-2.008,0-3.299,1.219-3.729,3.407 c-0.036,0.215-0.179,0.323-0.394,0.287l-2.259-0.395c-0.216-0.036-0.323-0.179-0.288-0.395c0.539-3.443,3.014-5.703,6.744-5.703 c3.872,0,6.49,2.546,6.49,6.097C31.781,20.33,31.173,21.585,29.953,23.271z"
     id="path4"
     style="fill:#71a1ef;fill-opacity:1" />
</svg>
