<?xml version="1.0" encoding="UTF-8" standalone="no"?>
<svg
   xmlns:dc="http://purl.org/dc/elements/1.1/"
   xmlns:cc="http://creativecommons.org/ns#"
   xmlns:rdf="http://www.w3.org/1999/02/22-rdf-syntax-ns#"
   xmlns:svg="http://www.w3.org/2000/svg"
   xmlns="http://www.w3.org/2000/svg"
   xmlns:sodipodi="http://sodipodi.sourceforge.net/DTD/sodipodi-0.dtd"
   xmlns:inkscape="http://www.inkscape.org/namespaces/inkscape"
   width="99.875"
   height="76"
   viewBox="0 0 49.9375 38"
   id="svg2"
   version="1.1"
   inkscape:version="0.91 r13725"
   sodipodi:docname="cat_0.svg">
  <metadata
     id="metadata10">
    <rdf:RDF>
      <cc:Work
         rdf:about="">
        <dc:format>image/svg+xml</dc:format>
        <dc:type
           rdf:resource="http://purl.org/dc/dcmitype/StillImage" />
        <dc:title></dc:title>
      </cc:Work>
    </rdf:RDF>
  </metadata>
  <defs
     id="defs8" />
  <sodipodi:namedview
     pagecolor="#ffffff"
     bordercolor="#666666"
     borderopacity="1"
     objecttolerance="10"
     gridtolerance="10"
     guidetolerance="10"
     inkscape:pageopacity="0"
     inkscape:pageshadow="2"
     inkscape:window-width="1680"
     inkscape:window-height="1028"
     id="namedview6"
     showgrid="false"
     fit-margin-top="0"
     fit-margin-left="0"
     fit-margin-right="0"
     fit-margin-bottom="0"
     inkscape:zoom="2.36"
     inkscape:cx="-12.5625"
     inkscape:cy="50"
     inkscape:window-x="-8"
     inkscape:window-y="-8"
     inkscape:window-maximized="1"
     inkscape:current-layer="svg2" />
  <path
     d="M 13.90625,0 C 8.45525,0 4,4.424 4,9.875 l 0,0.25 C 4.413,10.052 4.84725,10 5.28125,10 c 3.103,0 5.904,2.047 6.875,5 l 0.78125,1.6875 C 15.4605,16.0225 20.16675,15 25.09375,15 29.96575,15 34.457,15.96825 37,16.65625 L 37.90625,14.625 c 1.059,-2.76 3.762,-4.625 6.75,-4.625 0.434,0 0.86725,0.052 1.28125,0.125 l 0,-0.25 C 45.9375,4.424 41.48125,0 36.03125,0 l -22.125,0 z m -8.625,12 C 2.37625,12 0,14.37625 0,17.28125 c 0,2.175 1.364,4.099 3.375,4.875 L 5.8125,28.4375 C 6.8125,31.9015 11.24,32 11.75,32 l 26.46875,0 c 0.5,0 4.901,-0.09075 5.875,-3.46875 l 2.46875,-6.375 c 2.01,-0.778 3.375,-2.701 3.375,-4.875 C 49.9375,14.37525 47.56125,12 44.65625,12 42.47725,12 40.494,13.381 39.75,15.375 l -1.65625,3.71875 c -2.178,-0.697 -7.375,-2.09375 -13,-2.09375 -5.469,0 -10.99825,1.38075 -13.28125,2.09375 l -1.53125,-3.375 C 9.60525,13.52375 7.56925,12 5.28125,12 Z m 0.8125,20.21875 -0.8125,1.65625 c -0.34,0.681 -0.39725,1.4665 -0.15625,2.1875 0.241,0.722 0.72725,1.286 1.40625,1.625 C 6.93025,37.8855 7.3675,38 7.8125,38 8.8975,38 9.888,37.4085 10.375,36.4375 L 11.5625,34 C 9.7645,33.971 7.68275,33.45375 6.09375,32.21875 Z m 37.75,0.03125 C 42.25875,33.475 40.178,33.971 38.375,34 l 1.1875,2.4375 C 40.0495,37.4065 41.041,38 42.125,38 c 0.439,0 0.87425,-0.1115 1.28125,-0.3125 1.401,-0.702 1.95,-2.4115 1.25,-3.8125 l -0.8125,-1.625 z"
     id="path4"
     inkscape:connector-curvature="0"
     style="fill:#999999;fill-opacity:1" />
</svg>
