<?xml version="1.0" encoding="UTF-8" standalone="no"?>
<svg
   xmlns:dc="http://purl.org/dc/elements/1.1/"
   xmlns:cc="http://creativecommons.org/ns#"
   xmlns:rdf="http://www.w3.org/1999/02/22-rdf-syntax-ns#"
   xmlns:svg="http://www.w3.org/2000/svg"
   xmlns="http://www.w3.org/2000/svg"
   xmlns:sodipodi="http://sodipodi.sourceforge.net/DTD/sodipodi-0.dtd"
   xmlns:inkscape="http://www.inkscape.org/namespaces/inkscape"
   viewBox="0 0 23.763552 21"
   enable-background="new 0 0 24 24"
   width="95.054207"
   height="84"
   id="svg2"
   version="1.1"
   inkscape:version="0.91 r13725"
   sodipodi:docname="cat_1_hover.svg">
  <metadata
     id="metadata10">
    <rdf:RDF>
      <cc:Work
         rdf:about="">
        <dc:format>image/svg+xml</dc:format>
        <dc:type
           rdf:resource="http://purl.org/dc/dcmitype/StillImage" />
        <dc:title></dc:title>
      </cc:Work>
    </rdf:RDF>
  </metadata>
  <defs
     id="defs8" />
  <sodipodi:namedview
     pagecolor="#ffffff"
     bordercolor="#666666"
     borderopacity="1"
     objecttolerance="10"
     gridtolerance="10"
     guidetolerance="10"
     inkscape:pageopacity="0"
     inkscape:pageshadow="2"
     inkscape:window-width="1680"
     inkscape:window-height="1028"
     id="namedview6"
     showgrid="false"
     fit-margin-top="0"
     fit-margin-left="0"
     fit-margin-right="0"
     fit-margin-bottom="0"
     inkscape:zoom="2.4583333"
     inkscape:cx="-12.914766"
     inkscape:cy="48"
     inkscape:window-x="-8"
     inkscape:window-y="-8"
     inkscape:window-maximized="1"
     inkscape:current-layer="svg2" />
  <path
     d="m 3.5213086,0 c -0.8970918,0 -1.75,0.6808446 -1.75,1.65625 l 0,7.46875 C 1.2388028,9.445828 0.73999117,9.814719 0.30255858,10.25 A 1.0054782,1.0054782 0 1 0 1.7088086,11.6875 C 2.7490243,10.6524 4.1835601,10 5.7713086,10 c 3.1862612,0 5.7500004,2.563739 5.7500004,5.75 a 1.0001,1.0001 0 0 0 1.96875,0.25 l 3.0625,0 c -0.479475,0.531729 -0.78125,1.227546 -0.78125,2 0,1.657 1.343,3 3,3 1.657,0 3,-1.343 3,-3 0,-0.796822 -0.305796,-1.525329 -0.8125,-2.0625 0.301757,-0.08443 0.619121,-0.303888 0.75,-0.59375 l 1.96875,-5.0625 c 0.201,-0.446 0.039,-0.8125 -0.375,-0.8125 l -3.53125,-0.40625 0,-3.09375 C 19.771309,4.12175 20.740059,4 20.740059,4 l 0,-1 c -1.191,0 -2.96875,0.50075 -2.96875,2.96875 l 0,2.875 -4.625,-0.53125 -1.78125,-7.03125 C 11.136413,0.3847161 10.409462,0 9.6150586,0 l -6.09375,0 z m 0.25,2 5.71875,0 L 11.021309,8.09375 10.240059,8 3.7713086,8 l 0,-6 z m 2,9 c -2.76,0 -5.00000002,2.24 -5.00000002,5 0,2.76 2.24000002,5 5.00000002,5 2.76,0 5.0000004,-2.24 5.0000004,-5 0,-2.76 -2.2400004,-5 -5.0000004,-5 z m 0,2 c 1.654,0 3,1.346 3,3 0,1.654 -1.346,3 -3,3 -1.654,0 -3,-1.346 -3,-3 0,-1.654 1.346,-3 3,-3 z m 13.0000004,3.5 c 0.827,0 1.5,0.673 1.5,1.5 0,0.827 -0.673,1.5 -1.5,1.5 -0.827,0 -1.5,-0.673 -1.5,-1.5 0,-0.827 0.673,-1.5 1.5,-1.5 z"
     id="path4"
     inkscape:connector-curvature="0"
     style="fill:#71a1ef;fill-opacity:1" />
</svg>
